<?xml version="1.0" encoding="UTF-8" standalone="no"?><svg xmlns="http://www.w3.org/2000/svg" viewBox="0 0 346.34 418.65"><defs><style>.cls-1{fill:#e6e6e6;}.cls-10,.cls-2{fill:#fff;}.cls-3,.cls-9{fill:#143861;}.cls-4{fill:#085a9e;}.cls-5{fill:#2f2e41;}.cls-6{fill:#ffb6b6;}.cls-7{fill:#ffb8b8;}.cls-8{fill:#3f3d56;}.cls-10,.cls-9{fill-rule:evenodd;}</style></defs><g id="Layer_2" data-name="Layer 2"><g id="Layer_1-2" data-name="Layer 1"><path class="cls-1" d="M0,357.25.64,127.33a17.57,17.57,0,0,1,17.6-17.5l173.64.48a17.57,17.57,0,0,1,17.5,17.6l-.63,229.92a17.57,17.57,0,0,1-17.61,17.5L17.5,374.85A17.57,17.57,0,0,1,0,357.25Z"/><path class="cls-2" d="M13.51,287.84,13.92,140a16.45,16.45,0,0,1,16.49-16.39l149.23.41A16.46,16.46,0,0,1,196,140.53l-.57,204.6A16.44,16.44,0,0,1,179,361.52l-92.45-.25A73.32,73.32,0,0,1,13.51,287.84Z"/><path class="cls-3" d="M162.87,239H46.51a7,7,0,0,1,0-14H162.87a7,7,0,1,1,0,14Z"/><path class="cls-3" d="M72.11,200.74H46.51a7,7,0,0,1,0-14H72.11a7,7,0,0,1,0,14Z"/><path class="cls-3" d="M162.87,300.41H46.51a7,7,0,1,1,0-14H162.87a7,7,0,0,1,0,14Z"/><path class="cls-3" d="M162.87,269.72H46.51a7,7,0,0,1,0-14H162.87a7,7,0,0,1,0,14Z"/><circle class="cls-4" cx="67.32" cy="65.87" r="27.78"/><path class="cls-2" d="M63.53,80.32a3.07,3.07,0,0,1-2.47-1.23L53.48,69a3.09,3.09,0,0,1,4.94-3.71h0l5,6.62L76.12,52.78a3.09,3.09,0,0,1,5.14,3.43h0L66.1,79a3.08,3.08,0,0,1-2.49,1.37Z"/><circle class="cls-4" cx="318.13" cy="355.1" r="27.78"/><path class="cls-2" d="M314.34,369.56a3.1,3.1,0,0,1-2.47-1.24l-7.58-10.1a3.09,3.09,0,1,1,4.95-3.71h0l5,6.61L326.93,342a3.09,3.09,0,1,1,5.14,3.43h0l-15.15,22.73a3.1,3.1,0,0,1-2.49,1.38Z"/><polygon class="cls-5" points="230.13 184.83 236.13 220.44 293.13 189.83 230.13 184.83"/><polygon class="cls-6" points="223.32 406.27 211.38 405.78 207.58 359.49 225.2 360.21 223.32 406.27"/><path class="cls-5" d="M224.13,273.83c21.66-6.61,26.11-34.84,38-41,0-14.92.57-61.16-14.31-60.28-8.29.49-54.48,85-56.46,99-3.67,26,15.94,92.31,13.67,96.87l22.77,1.44.13-1.79c.36-4.87,4-19.53-.15-22.1l-1.57-1h0c0-5,1.12-13.66-3.44-15.85h0a.45.45,0,0,1-.21-.61l0,0Z"/><path class="cls-5" d="M229.48,416.63l-8,.47-1.87-7.46-3.2,7.76-21.18,1.24a4.77,4.77,0,0,1-3.22-8.51l16.22-12.68-.44-7.62h17.85Z"/><polygon class="cls-6" points="314.34 322.84 326.25 323.81 335.64 278.32 318.06 276.9 314.34 322.84"/><path class="cls-5" d="M309.67,207.57c-10.68,18.78-29.8,23.26-49.61,26.54-8.62-12.17-21.75-29.13-9.11-37,7-4.41,68.06-40,77.48-29.48,24.6,27.54,7.05,116.2,8.56,114.24l-19.48-.29-1.15-1.38a13.09,13.09,0,0,1-2-13.42l.71-1.71h0a13.1,13.1,0,0,1-.8-14l.24-.44Z"/><path class="cls-5" d="M314,306.25l17.72,2.16-1.37,7.51,14.56,14.55a4.77,4.77,0,0,1-4.22,8.07l-20.87-3.81-2.25-8.09-2.76,7.17L307,332.38Z"/><path class="cls-3" d="M267.72,57.83h-8.17a10.33,10.33,0,0,0-8.5,4.45l-5.92,8.55-14.74,2.68a25.9,25.9,0,0,0-10.59,31.25c10.44,27.29,15.48,78.46,5.33,101.07,0,0,61.55,5.57,77-13s3-109,3-109l-23-13-5.91-8.55A10.33,10.33,0,0,0,267.72,57.83Z"/><path class="cls-6" d="M305.86,217.6a6.87,6.87,0,0,0-.25-9.72,6.27,6.27,0,0,0-.95-.75l13.47-44.3-15-9-8.32,55.63a6.91,6.91,0,0,0,11.05,8.14Z"/><path class="cls-3" d="M319.13,167.83l-18-7,.77-9L280.52,105a17.32,17.32,0,0,1,8.56-23,16.18,16.18,0,0,1,3-1h0a17.35,17.35,0,0,1,21,12.61l14,56.24C328.78,158.59,326.94,165.11,319.13,167.83Z"/><path class="cls-5" d="M294.23,30.58a30.55,30.55,0,0,0-61.1-.06V49.73a4.12,4.12,0,0,0,4.1,4.1H238a29,29,0,0,0,1.57-7.69,27.19,27.19,0,0,1,3.56,7.69h47a4.11,4.11,0,0,0,4.11-4.1C296.7,44.69,297.81,38.91,294.23,30.58Z"/><circle class="cls-7" cx="262.45" cy="31.24" r="22.4"/><path class="cls-5" d="M239.44,31.15a2.26,2.26,0,0,1-.53-1.81l2.65-18.48a2.29,2.29,0,0,1,1.29-1.75c13.54-6.34,27.28-6.34,40.82,0a2.29,2.29,0,0,1,1.3,1.85l2.77,14.5a2.28,2.28,0,0,1-.58,1.75c-.43.48-1,10.9-1.68,10.9.55-6.21-.76-9.18-5.5-6.15a2.29,2.29,0,0,1-2.07-1.32L276,26.47a1.37,1.37,0,0,0-2.6.41L273,29.94a2.3,2.3,0,0,1-2.27,2c-7.91,3.93-18.29,2.87-29.57,0A2.27,2.27,0,0,1,239.44,31.15Z"/><path class="cls-8" d="M280.31,155.77H243.6a4.76,4.76,0,0,1-4.74-4.74V111.57a4.75,4.75,0,0,1,4.74-4.74h36.71a4.74,4.74,0,0,1,4.74,4.74V151A4.75,4.75,0,0,1,280.31,155.77Z"/><circle class="cls-1" cx="244.64" cy="112.6" r="2.75"/><circle class="cls-8" cx="244.64" cy="112.6" r="1.65"/><path id="path37647" class="cls-9" d="M157.28,172.61V156.53c0-1.3-.54-1.72-1.77-1.72h-3.69v1.77h.41c.69,0,1,.26,1,1v15Zm2.19,0h4V160.47c0-1.23-.55-1.72-1.78-1.72h-2.18Zm-8.47,0V158.75h-2.18c-1.23,0-1.77.49-1.77,1.72v12.14Zm17.07-8.08c0,7.52-5.46,13-12.83,13s-12.83-5.48-12.83-13,5.46-13,12.83-13,12.83,5.48,12.83,13m2.59,0A15.43,15.43,0,1,0,155.24,180a15,15,0,0,0,15.42-15.43"/><path id="path37647-2" data-name="path37647" class="cls-10" d="M263.64,136.17V128.3c0-.64-.27-.84-.87-.84H261v.86h.2c.34,0,.47.13.47.52v7.33Zm1.07,0h1.93v-5.94c0-.6-.26-.84-.87-.84h-1.06Zm-4.15,0v-6.78h-1.07c-.6,0-.86.24-.86.84v5.94Zm8.35-4a6.28,6.28,0,1,1-6.28-6.36,6.14,6.14,0,0,1,6.28,6.36m1.27,0a7.55,7.55,0,1,0-7.55,7.56,7.35,7.35,0,0,0,7.55-7.56"/><path class="cls-7" d="M286.83,129.17a8.34,8.34,0,0,1-11.78.62,7.86,7.86,0,0,1-1-1.08l-32.92,9.12-5-11,39.8-10.25a8.39,8.39,0,0,1,10.9,12.59Z"/><path class="cls-3" d="M245,138.11l-9.23,2.95c-10,10.61-13.6,2.91-25.43,2.11-2.23-.15-4-2-5.18-5.43a21.24,21.24,0,0,1,.46-14.9l16.44-41.2L229,76l9.61,11.52-7.38,31.65,12.11,6.17Z"/></g></g></svg>