<?xml version="1.0" encoding="UTF-8" standalone="no"?><svg xmlns="http://www.w3.org/2000/svg" viewBox="0 0 494.12 127.92"><defs><style>.cls-1,.cls-2{fill:#fff;}.cls-1{fill-rule:evenodd;}</style></defs><g id="Layer_2" data-name="Layer 2"><g id="Layer_1-2" data-name="Layer 1"><path id="path37627" class="cls-1" d="M44.71,69H26.6l9.62-31.3Zm-26.6,31.64,5.66-19.08H47l5.66,19.08H71.88L51.51,28.25C50.37,23.49,48.11,22,43,22H14.72v6.51H17c3.4,0,5.09,1.08,5.09,3.68,0,1.64,0,2.72-1.69,6.63L0,100.64"/><path id="path37629" class="cls-2" d="M96.22,100.64V27.74C96.22,24,94,22,90,22H72.45v6.51h1.13c3.4,0,5.09,1.42,5.09,4.48v67.69"/><path id="path37631" class="cls-2" d="M127.92,100.64V27.74c0-3.79-2.27-5.78-6.23-5.78H104.14v6.51h1.14c3.39,0,5.09,1.42,5.09,4.48v67.69"/><path id="path37633" class="cls-1" d="M160.18,28.93c0-5.21-4-8.27-10.19-8.27-6.79,0-10.19,3.06-10.19,8.27s3.4,8.43,10.19,8.43c6.23,0,10.19-3.11,10.19-8.43m-.57,71.71V47.55c0-3.68-2.26-5.83-5.66-5.83H136.41v6.39h1.13c3.39,0,4.53,1.42,4.53,4.65v47.88"/><path id="path37635" class="cls-1" d="M201.5,72.06V83.83c-3.4,3.39-7.36,5.32-10.76,5.32s-5.09-1.64-5.09-6.06c0-4.86,1.13-6.73,5.09-8.26a44.73,44.73,0,0,1,10.76-2.77M176.59,58l1.7-.68A50.22,50.22,0,0,1,189,54.17a48.48,48.48,0,0,1,5.1-.45c5.66,0,7.36,1.87,7.36,7.07v1.47C193.57,63.57,191.31,64,186.78,65A46.19,46.19,0,0,0,180,67.24c-7.36,3-10.76,8.61-10.76,17.49,0,11.15,4.53,16.47,14.72,16.47a20.51,20.51,0,0,0,10.75-2.71c2.83-1.3,4-2,7.36-5.1v1.82c0,3.67,1.7,5.43,5.1,5.43h17V94.58h-.57c-3.4,0-5.09-1.53-5.09-4.58V61.08c0-15.06-5.1-20.15-19.81-20.15a59.53,59.53,0,0,0-14.15,1.64,42,42,0,0,0-11.89,4.53"/><path id="path37637" class="cls-1" d="M250.74,100.64v-40c4-3.68,6.79-5.09,10.75-5.09s5.1,1.69,5.1,7.69v37.36h17.54V60.45c0-8.26-1.13-11.83-3.39-14.94-2.83-3.06-6.23-4.47-11.32-4.47-6.8,0-11.89,2.49-19.81,9.34V47.21c0-3.68-1.7-5.49-5.1-5.49h-17v6.39h.57c3.39,0,5.09,1.42,5.09,4.65v47.88"/><g id="g37643"><path id="path37645" class="cls-2" d="M338.47,89.37h-26l24.9-35.54V41.71H300c-4.52,0-6.22,1.82-6.22,6.17v10.7H300V57.39c0-3.22,1.7-4.53,5.1-4.53h13.58L293.19,88.41v12.23h45.28"/><path id="path37647" class="cls-1" d="M438.65,97.41V30.73c0-5.37-2.26-7.13-7.35-7.13H416V31h1.7c2.83,0,4,1.08,4,4.36V97.41Zm9.06,0h16.41V47.09c0-5.09-2.26-7.13-7.35-7.13h-9.06Zm-35.09,0V40h-9.06c-5.09,0-7.36,2-7.36,7.13V97.41ZM483.37,63.9c0,31.19-22.64,53.94-53.21,53.94S377,95.09,377,63.9,399.6,10,430.16,10s53.21,22.75,53.21,53.94m10.75,0c0-36.51-27.17-63.9-64-63.9-36.22,0-64,27.39-64,63.9s27.73,64,64,64c36.79,0,64-27.4,64-64"/></g></g></g></svg>